<?xml version="1.0" encoding="UTF-8" standalone="no"?>
<!-- Created with Inkscape (http://www.inkscape.org/) -->

<svg
   xmlns:dc="http://purl.org/dc/elements/1.1/"
   xmlns:cc="http://creativecommons.org/ns#"
   xmlns:rdf="http://www.w3.org/1999/02/22-rdf-syntax-ns#"
   xmlns:svg="http://www.w3.org/2000/svg"
   xmlns="http://www.w3.org/2000/svg"
   xmlns:sodipodi="http://sodipodi.sourceforge.net/DTD/sodipodi-0.dtd"
   xmlns:inkscape="http://www.inkscape.org/namespaces/inkscape"
   width="210mm"
   height="297mm"
   viewBox="0 0 210 297"
   version="1.1"
   id="svg8"
   inkscape:version="0.92.2 5c3e80d, 2017-08-06"
   sodipodi:docname="fish.svg"
   enable-background="new">
  <defs
     id="defs2" />
  <sodipodi:namedview
     id="base"
     pagecolor="#ffffff"
     bordercolor="#666666"
     borderopacity="1.0"
     inkscape:pageopacity="0.0"
     inkscape:pageshadow="2"
     inkscape:zoom="0.35"
     inkscape:cx="447.14286"
     inkscape:cy="445.71429"
     inkscape:document-units="mm"
     inkscape:current-layer="layer1"
     showgrid="true"
     inkscape:window-width="1440"
     inkscape:window-height="799"
     inkscape:window-x="0"
     inkscape:window-y="0"
     inkscape:window-maximized="1" />
  <metadata
     id="metadata5">
    <rdf:RDF>
      <cc:Work
         rdf:about="">
        <dc:format>image/svg+xml</dc:format>
        <dc:type
           rdf:resource="http://purl.org/dc/dcmitype/StillImage" />
        <dc:title></dc:title>
      </cc:Work>
    </rdf:RDF>
  </metadata>
  <g
     inkscape:label="Layer 1"
     inkscape:groupmode="layer"
     id="layer1"
     style="">
    <path
       style="fill:none;fill-rule:evenodd;stroke:#000000;stroke-width:0.26458332px;stroke-linecap:butt;stroke-linejoin:miter;stroke-opacity:1"
       d="M 0,0.66666665 V 129.17857 l 211.66666,-0.75595 -0.75595,-128.51190571 z"
       id="path1392"
       inkscape:connector-curvature="0" />
    <path
       style="opacity:1;fill:none;fill-opacity:1;stroke:#000000;stroke-width:15.71428585;stroke-linecap:round;stroke-linejoin:round;stroke-miterlimit:4;stroke-dasharray:none;stroke-opacity:0"
       d="m 426.57143,261.22685 c 0,-20.5818 -0.77025,-41.76074 -1.71167,-47.06431 -1.50796,-8.49521 0.0214,-7.09254 12.8499,11.78572 8.00886,11.78571 14.56483,23.20063 14.56881,25.36649 0.004,2.16586 -4.0688,11.16586 -9.05062,20 -17.41551,30.88245 -16.65642,31.34219 -16.65642,-10.0879 z"
       id="path1398"
       inkscape:connector-curvature="0"
       transform="scale(0.26458333)" />
    <path
       style="opacity:1;fill:none;fill-opacity:1;stroke:#000000;stroke-width:15.71428585;stroke-linecap:round;stroke-linejoin:round;stroke-miterlimit:4;stroke-dasharray:none;stroke-opacity:0"
       d="m 503.71429,287.90266 c -27.00248,-7.78115 -48.57143,-23.40015 -48.57143,-35.17265 0,-25.32944 55.73934,-47.80035 105.38217,-42.48406 76.66417,8.21004 100.23187,50.19345 41.02324,73.07862 -20.36951,7.87318 -77.17475,10.53134 -97.83398,4.57809 z"
       id="path1400"
       inkscape:connector-curvature="0"
       transform="scale(0.26458333)" />
    <path
       style="opacity:1;fill:none;fill-opacity:1;stroke:#000000;stroke-width:15.71428585;stroke-linecap:round;stroke-linejoin:round;stroke-miterlimit:4;stroke-dasharray:none;stroke-opacity:0"
       d="m 503.71429,287.90266 c -27.00248,-7.78115 -48.57143,-23.40015 -48.57143,-35.17265 0,-25.32944 55.73934,-47.80035 105.38217,-42.48406 76.66417,8.21004 100.23187,50.19345 41.02324,73.07862 -20.36951,7.87318 -77.17475,10.53134 -97.83398,4.57809 z"
       id="path1402"
       inkscape:connector-curvature="0"
       transform="scale(0.26458333)" />
    <path
       style="opacity:1;fill:none;fill-opacity:1;stroke:#000000;stroke-width:15.71428585;stroke-linecap:round;stroke-linejoin:round;stroke-miterlimit:4;stroke-dasharray:none;stroke-opacity:0"
       d="m 503.71429,287.90266 c -27.00248,-7.78115 -48.57143,-23.40015 -48.57143,-35.17265 0,-25.32944 55.73934,-47.80035 105.38217,-42.48406 76.66417,8.21004 100.23187,50.19345 41.02324,73.07862 -20.36951,7.87318 -77.17475,10.53134 -97.83398,4.57809 z"
       id="path1404"
       inkscape:connector-curvature="0"
       transform="scale(0.26458333)" />
    <path
       style="opacity:1;fill:none;fill-opacity:1;stroke:#000000;stroke-width:15.71428585;stroke-linecap:round;stroke-linejoin:round;stroke-miterlimit:4;stroke-dasharray:none;stroke-opacity:0"
       d="m 503.71429,287.90266 c -27.00248,-7.78115 -48.57143,-23.40015 -48.57143,-35.17265 0,-25.32944 55.73934,-47.80035 105.38217,-42.48406 76.66417,8.21004 100.23187,50.19345 41.02324,73.07862 -20.36951,7.87318 -77.17475,10.53134 -97.83398,4.57809 z"
       id="path1406"
       inkscape:connector-curvature="0"
       transform="scale(0.26458333)" />
    <path
       style="opacity:1;fill:none;fill-opacity:1;stroke:#000000;stroke-width:15.71428585;stroke-linecap:round;stroke-linejoin:round;stroke-miterlimit:4;stroke-dasharray:none;stroke-opacity:0"
       d="m 491.23544,281.77713 c -16.64785,-6.84466 -28.51036,-15.67716 -33.51093,-24.95131 -6.14493,-11.39649 9.84512,-27.14485 38.84692,-38.25973 22.22702,-8.51847 79.51739,-7.65746 102.82203,1.54529 37.73933,14.90286 44.16528,38.69093 14.98256,55.46359 -16.80569,9.65902 -37.04928,13.24171 -74.37379,13.16262 -27.18979,-0.0576 -34.52326,-1.10432 -48.76679,-6.96046 z"
       id="path1414"
       inkscape:connector-curvature="0"
       transform="scale(0.26458333)" />
    <path
       style="opacity:1;fill:none;fill-opacity:1;stroke:#000000;stroke-width:15.71428585;stroke-linecap:round;stroke-linejoin:round;stroke-miterlimit:4;stroke-dasharray:none;stroke-opacity:0"
       d="m 491.23544,281.77713 c -16.64785,-6.84466 -28.51036,-15.67716 -33.51093,-24.95131 -6.14493,-11.39649 9.84512,-27.14485 38.84692,-38.25973 22.22702,-8.51847 79.51739,-7.65746 102.82203,1.54529 37.73933,14.90286 44.16528,38.69093 14.98256,55.46359 -16.80569,9.65902 -37.04928,13.24171 -74.37379,13.16262 -27.18979,-0.0576 -34.52326,-1.10432 -48.76679,-6.96046 z"
       id="path1416"
       inkscape:connector-curvature="0"
       transform="scale(0.26458333)" />
    <path
       style="opacity:1;fill:none;fill-opacity:1;stroke:#000000;stroke-width:15.71428585;stroke-linecap:round;stroke-linejoin:round;stroke-miterlimit:4;stroke-dasharray:none;stroke-opacity:0"
       d="m 491.23544,281.77713 c -16.64785,-6.84466 -28.51036,-15.67716 -33.51093,-24.95131 -6.14493,-11.39649 9.84512,-27.14485 38.84692,-38.25973 22.22702,-8.51847 79.51739,-7.65746 102.82203,1.54529 37.73933,14.90286 44.16528,38.69093 14.98256,55.46359 -16.80569,9.65902 -37.04928,13.24171 -74.37379,13.16262 -27.18979,-0.0576 -34.52326,-1.10432 -48.76679,-6.96046 z"
       id="path1418"
       inkscape:connector-curvature="0"
       transform="scale(0.26458333)" />
    <path
       style="opacity:1;fill:none;fill-opacity:1;stroke:#000000;stroke-width:15.71428585;stroke-linecap:round;stroke-linejoin:round;stroke-miterlimit:4;stroke-dasharray:none;stroke-opacity:0"
       d="m 491.23544,281.77713 c -16.64785,-6.84466 -28.51036,-15.67716 -33.51093,-24.95131 -6.14493,-11.39649 9.84512,-27.14485 38.84692,-38.25973 22.22702,-8.51847 79.51739,-7.65746 102.82203,1.54529 37.73933,14.90286 44.16528,38.69093 14.98256,55.46359 -16.80569,9.65902 -37.04928,13.24171 -74.37379,13.16262 -27.18979,-0.0576 -34.52326,-1.10432 -48.76679,-6.96046 z"
       id="path1420"
       inkscape:connector-curvature="0"
       transform="scale(0.26458333)" />
    <path
       style="opacity:1;fill:none;fill-opacity:1;stroke:#000000;stroke-width:15.71428585;stroke-linecap:round;stroke-linejoin:round;stroke-miterlimit:4;stroke-dasharray:none;stroke-opacity:0"
       d="m 491.23544,281.77713 c -16.64785,-6.84466 -28.51036,-15.67716 -33.51093,-24.95131 -6.14493,-11.39649 9.84512,-27.14485 38.84692,-38.25973 22.22702,-8.51847 79.51739,-7.65746 102.82203,1.54529 37.73933,14.90286 44.16528,38.69093 14.98256,55.46359 -16.80569,9.65902 -37.04928,13.24171 -74.37379,13.16262 -27.18979,-0.0576 -34.52326,-1.10432 -48.76679,-6.96046 z"
       id="path1422"
       inkscape:connector-curvature="0"
       transform="scale(0.26458333)" />
    <path
       style="opacity:1;fill:none;fill-opacity:1;stroke:#000000;stroke-width:15.71428585;stroke-linecap:round;stroke-linejoin:round;stroke-miterlimit:4;stroke-dasharray:none;stroke-opacity:0"
       d="m 491.23544,281.77713 c -16.64785,-6.84466 -28.51036,-15.67716 -33.51093,-24.95131 -6.14493,-11.39649 9.84512,-27.14485 38.84692,-38.25973 22.22702,-8.51847 79.51739,-7.65746 102.82203,1.54529 37.73933,14.90286 44.16528,38.69093 14.98256,55.46359 -16.80569,9.65902 -37.04928,13.24171 -74.37379,13.16262 -27.18979,-0.0576 -34.52326,-1.10432 -48.76679,-6.96046 z"
       id="path1424"
       inkscape:connector-curvature="0"
       transform="scale(0.26458333)" />
    <path
       style="opacity:1;fill:none;fill-opacity:1;stroke:#000000;stroke-width:15.71428585;stroke-linecap:round;stroke-linejoin:round;stroke-miterlimit:4;stroke-dasharray:none;stroke-opacity:0"
       d="m 491.23544,281.77713 c -16.64785,-6.84466 -28.51036,-15.67716 -33.51093,-24.95131 -6.14493,-11.39649 9.84512,-27.14485 38.84692,-38.25973 22.22702,-8.51847 79.51739,-7.65746 102.82203,1.54529 37.73933,14.90286 44.16528,38.69093 14.98256,55.46359 -16.80569,9.65902 -37.04928,13.24171 -74.37379,13.16262 -27.18979,-0.0576 -34.52326,-1.10432 -48.76679,-6.96046 z"
       id="path1426"
       inkscape:connector-curvature="0"
       transform="scale(0.26458333)" />
    <path
       style="opacity:1;fill:none;fill-opacity:1;stroke:#000000;stroke-width:15.71428585;stroke-linecap:round;stroke-linejoin:round;stroke-miterlimit:4;stroke-dasharray:none;stroke-opacity:0"
       d="m 491.23544,281.77713 c -16.64785,-6.84466 -28.51036,-15.67716 -33.51093,-24.95131 -6.14493,-11.39649 9.84512,-27.14485 38.84692,-38.25973 22.22702,-8.51847 79.51739,-7.65746 102.82203,1.54529 37.73933,14.90286 44.16528,38.69093 14.98256,55.46359 -16.80569,9.65902 -37.04928,13.24171 -74.37379,13.16262 -27.18979,-0.0576 -34.52326,-1.10432 -48.76679,-6.96046 z"
       id="path1428"
       inkscape:connector-curvature="0"
       transform="scale(0.26458333)" />
    <path
       style="opacity:1;fill:none;fill-opacity:1;stroke:#000000;stroke-width:15.71428585;stroke-linecap:round;stroke-linejoin:round;stroke-miterlimit:4;stroke-dasharray:none;stroke-opacity:0"
       d="m 491.23544,281.77713 c -16.64785,-6.84466 -28.51036,-15.67716 -33.51093,-24.95131 -6.14493,-11.39649 9.84512,-27.14485 38.84692,-38.25973 22.22702,-8.51847 79.51739,-7.65746 102.82203,1.54529 37.73933,14.90286 44.16528,38.69093 14.98256,55.46359 -16.80569,9.65902 -37.04928,13.24171 -74.37379,13.16262 -27.18979,-0.0576 -34.52326,-1.10432 -48.76679,-6.96046 z"
       id="path1430"
       inkscape:connector-curvature="0"
       transform="scale(0.26458333)" />
    <path
       style="opacity:1;fill:none;fill-opacity:1;stroke:#000000;stroke-width:15.71428585;stroke-linecap:round;stroke-linejoin:round;stroke-miterlimit:4;stroke-dasharray:none;stroke-opacity:0"
       d="m 491.23544,281.77713 c -16.64785,-6.84466 -28.51036,-15.67716 -33.51093,-24.95131 -6.14493,-11.39649 9.84512,-27.14485 38.84692,-38.25973 22.22702,-8.51847 79.51739,-7.65746 102.82203,1.54529 37.73933,14.90286 44.16528,38.69093 14.98256,55.46359 -16.80569,9.65902 -37.04928,13.24171 -74.37379,13.16262 -27.18979,-0.0576 -34.52326,-1.10432 -48.76679,-6.96046 z"
       id="path1432"
       inkscape:connector-curvature="0"
       transform="scale(0.26458333)" />
    <path
       style="opacity:1;fill:none;fill-opacity:1;stroke:#000000;stroke-width:15.71428585;stroke-linecap:round;stroke-linejoin:round;stroke-miterlimit:4;stroke-dasharray:none;stroke-opacity:0"
       d="m 491.23544,281.77713 c -16.64785,-6.84466 -28.51036,-15.67716 -33.51093,-24.95131 -6.14493,-11.39649 9.84512,-27.14485 38.84692,-38.25973 22.22702,-8.51847 79.51739,-7.65746 102.82203,1.54529 37.73933,14.90286 44.16528,38.69093 14.98256,55.46359 -16.80569,9.65902 -37.04928,13.24171 -74.37379,13.16262 -27.18979,-0.0576 -34.52326,-1.10432 -48.76679,-6.96046 z"
       id="path1434"
       inkscape:connector-curvature="0"
       transform="scale(0.26458333)" />
    <path
       style="opacity:1;fill:none;fill-opacity:1;stroke:#000000;stroke-width:15.71428585;stroke-linecap:round;stroke-linejoin:round;stroke-miterlimit:4;stroke-dasharray:none;stroke-opacity:0"
       d="m 426.57143,261.22685 c 0,-20.5818 -0.77025,-41.76074 -1.71167,-47.06431 -1.50796,-8.49521 0.0214,-7.09254 12.8499,11.78572 8.00886,11.78571 14.56483,23.20063 14.56881,25.36649 0.004,2.16586 -4.0688,11.16586 -9.05062,20 -17.41551,30.88245 -16.65642,31.34219 -16.65642,-10.0879 z"
       id="path1436"
       inkscape:connector-curvature="0"
       transform="scale(0.26458333)" />
    <path
       style="opacity:1;fill:none;fill-opacity:1;stroke:#000000;stroke-width:15.71428585;stroke-linecap:round;stroke-linejoin:round;stroke-miterlimit:4;stroke-dasharray:none;stroke-opacity:0"
       d="M 0.85714286,244.65896 V 3.3696636 L 397.28571,2.516103 C 615.32143,2.0466445 793.9228,1.6625422 794.17766,1.6625422 c 0.25485,0 1.40657,108.1083778 2.55931,240.2408378 l 2.09594,240.24085 -203.98788,1.8998 c -112.19334,1.04491 -291.73789,1.90083 -398.98789,1.90203 l -194.99999714,0.002 z M 441.202,282.49274 c 12.23977,-21.23688 13.55883,-22.59691 16.53069,-17.04396 13.97117,26.10539 98.499,38.05265 144.55302,20.43131 35.59155,-13.61816 45.01046,-34.16508 24.8866,-54.28893 -32.08068,-32.08069 -129.80171,-32.42579 -163.04182,-0.57577 l -11.11186,10.64715 -14.8518,-22.41942 c -8.16849,-12.33069 -15.49663,-21.7746 -16.28474,-20.98647 -0.78812,0.78812 -0.51006,26.01006 0.61791,56.04875 1.12797,30.03869 2.80463,53.86206 3.72589,52.9408 0.92125,-0.92126 7.66051,-12.06031 14.97611,-24.75346 z"
       id="path1438"
       inkscape:connector-curvature="0"
       transform="scale(0.26458333)" />
    <path
       style="opacity:1;fill:none;fill-opacity:1;stroke:#000000;stroke-width:15.71428585;stroke-linecap:round;stroke-linejoin:round;stroke-miterlimit:4;stroke-dasharray:none;stroke-opacity:0"
       d="m 500.85714,287.29809 c -18.32885,-5.03796 -36.67204,-16.92765 -42.70889,-27.68304 -15.91332,-28.35157 50.14783,-57.1127 111.31356,-48.46273 70.56181,9.97874 88.51526,50.36153 32.08646,72.17225 -21.5667,8.33591 -76.87893,10.51867 -100.69113,3.97352 z"
       id="path1440"
       inkscape:connector-curvature="0"
       transform="scale(0.26458333)" />
    <path
       style="opacity:1;fill:none;fill-opacity:1;stroke:#000000;stroke-width:15.71428585;stroke-linecap:round;stroke-linejoin:round;stroke-miterlimit:4;stroke-dasharray:none;stroke-opacity:0"
       d="M 0.85714286,244.65896 V 3.3696636 L 397.28571,2.516103 C 615.32143,2.0466445 793.93054,1.6645253 794.19489,1.6669488 c 0.26428,0.00242 1.42068,108.1107612 2.56968,240.2407412 l 2.08909,240.23634 -203.99826,1.89991 c -112.19903,1.04495 -291.74826,1.90092 -398.99826,1.90212 l -194.99999714,0.002 z M 441.202,282.49274 c 12.23977,-21.23688 13.55883,-22.59691 16.53069,-17.04396 13.97117,26.10539 98.499,38.05265 144.55302,20.43131 35.59155,-13.61816 45.01046,-34.16508 24.8866,-54.28893 -32.23154,-32.23155 -129.91762,-32.32723 -163.4788,-0.16011 l -10.67488,10.23149 -14.8518,-22.41942 c -8.16849,-12.33069 -15.49663,-21.7746 -16.28474,-20.98647 -0.78812,0.78812 -0.51006,26.01006 0.61791,56.04875 1.12797,30.03869 2.80463,53.86206 3.72589,52.9408 0.92125,-0.92126 7.66051,-12.06031 14.97611,-24.75346 z"
       id="path1442"
       inkscape:connector-curvature="0"
       transform="scale(0.26458333)" />
    <path
       style="opacity:1;fill:none;fill-opacity:1;stroke:#000000;stroke-width:15.71428585;stroke-linecap:round;stroke-linejoin:round;stroke-miterlimit:4;stroke-dasharray:none;stroke-opacity:0"
       d="M 0.85714286,244.65896 V 3.3696636 L 397.28571,2.516103 C 615.32143,2.0466445 793.93054,1.6645253 794.19489,1.6669488 c 0.26428,0.00242 1.42068,108.1107612 2.56968,240.2407412 l 2.08909,240.23634 -203.99826,1.89991 c -112.19903,1.04495 -291.74826,1.90092 -398.99826,1.90212 l -194.99999714,0.002 z M 441.202,282.49274 c 12.23977,-21.23688 13.55883,-22.59691 16.53069,-17.04396 13.97117,26.10539 98.499,38.05265 144.55302,20.43131 35.59155,-13.61816 45.01046,-34.16508 24.8866,-54.28893 -32.23154,-32.23155 -129.91762,-32.32723 -163.4788,-0.16011 l -10.67488,10.23149 -14.8518,-22.41942 c -8.16849,-12.33069 -15.49663,-21.7746 -16.28474,-20.98647 -0.78812,0.78812 -0.51006,26.01006 0.61791,56.04875 1.12797,30.03869 2.80463,53.86206 3.72589,52.9408 0.92125,-0.92126 7.66051,-12.06031 14.97611,-24.75346 z"
       id="path1444"
       inkscape:connector-curvature="0"
       transform="scale(0.26458333)" />
    <path
       style="opacity:1;fill:none;fill-opacity:1;stroke:#000000;stroke-width:15.71428585;stroke-linecap:round;stroke-linejoin:round;stroke-miterlimit:4;stroke-dasharray:none;stroke-opacity:0"
       d="M 0.85714286,244.65896 V 3.3696636 L 397.28571,2.516103 C 615.32143,2.0466445 793.93054,1.6645253 794.19489,1.6669488 c 0.26428,0.00242 1.42068,108.1107612 2.56968,240.2407412 l 2.08909,240.23634 -203.99826,1.89991 c -112.19903,1.04495 -291.74826,1.90092 -398.99826,1.90212 l -194.99999714,0.002 z M 441.202,282.49274 c 12.23977,-21.23688 13.55883,-22.59691 16.53069,-17.04396 13.97117,26.10539 98.499,38.05265 144.55302,20.43131 35.59155,-13.61816 45.01046,-34.16508 24.8866,-54.28893 -32.23154,-32.23155 -129.91762,-32.32723 -163.4788,-0.16011 l -10.67488,10.23149 -14.8518,-22.41942 c -8.16849,-12.33069 -15.49663,-21.7746 -16.28474,-20.98647 -0.78812,0.78812 -0.51006,26.01006 0.61791,56.04875 1.12797,30.03869 2.80463,53.86206 3.72589,52.9408 0.92125,-0.92126 7.66051,-12.06031 14.97611,-24.75346 z"
       id="path1446"
       inkscape:connector-curvature="0"
       transform="scale(0.26458333)" />
    <path
       style="opacity:1;fill:none;fill-opacity:1;stroke:#000000;stroke-width:15.71428585;stroke-linecap:round;stroke-linejoin:round;stroke-miterlimit:4;stroke-dasharray:none;stroke-opacity:0"
       d=""
       id="path1448"
       inkscape:connector-curvature="0"
       transform="scale(0.26458333)" />
    <path
       style="opacity:1;fill:none;fill-opacity:1;stroke:#000000;stroke-width:15.71428585;stroke-linecap:round;stroke-linejoin:round;stroke-miterlimit:4;stroke-dasharray:none;stroke-opacity:0"
       d=""
       id="path1450"
       inkscape:connector-curvature="0"
       transform="scale(0.26458333)" />
    <path
       style="opacity:1;fill:none;fill-opacity:1;stroke:#000000;stroke-width:15.71428585;stroke-linecap:round;stroke-linejoin:round;stroke-miterlimit:4;stroke-dasharray:none;stroke-opacity:0"
       d=""
       id="path1452"
       inkscape:connector-curvature="0"
       transform="scale(0.26458333)" />
    <path
       style="opacity:1;fill:none;fill-opacity:1;stroke:#000000;stroke-width:15.71428585;stroke-linecap:round;stroke-linejoin:round;stroke-miterlimit:4;stroke-dasharray:none;stroke-opacity:0"
       d="m 505.14286,287.80389 c -28.15458,-7.3057 -50,-23.22106 -50,-36.42724 0,-8.4846 16.017,-24.24038 31.34592,-30.83471 7.83456,-3.37034 24.66499,-7.53024 37.40096,-9.24424 52.09313,-7.01064 111.25312,13.84614 111.25312,39.22216 0,10.60911 -15.68913,25.88149 -33.74379,32.84747 -20.19074,7.79015 -73.80834,10.26144 -96.25621,4.43656 z"
       id="path1454"
       inkscape:connector-curvature="0"
       transform="scale(0.26458333)" />
    <path
       style="opacity:1;fill:none;fill-opacity:1;stroke:#000000;stroke-width:15.71428585;stroke-linecap:round;stroke-linejoin:round;stroke-miterlimit:4;stroke-dasharray:none;stroke-opacity:0"
       d="m 491.23544,281.77713 c -16.64785,-6.84466 -28.51036,-15.67716 -33.51093,-24.95131 -6.14493,-11.39649 9.84512,-27.14485 38.84692,-38.25973 22.22702,-8.51847 79.51739,-7.65746 102.82203,1.54529 37.73933,14.90286 44.16528,38.69093 14.98256,55.46359 -16.80569,9.65902 -37.04928,13.24171 -74.37379,13.16262 -27.18979,-0.0576 -34.52326,-1.10432 -48.76679,-6.96046 z"
       id="path1456"
       inkscape:connector-curvature="0"
       transform="scale(0.26458333)" />
    <path
       style="opacity:1;fill:none;fill-opacity:1;stroke:#000000;stroke-width:15.71428585;stroke-linecap:round;stroke-linejoin:round;stroke-miterlimit:4;stroke-dasharray:none;stroke-opacity:0"
       d="m 491.23544,281.77713 c -16.64785,-6.84466 -28.51036,-15.67716 -33.51093,-24.95131 -6.14493,-11.39649 9.84512,-27.14485 38.84692,-38.25973 22.22702,-8.51847 79.51739,-7.65746 102.82203,1.54529 37.73933,14.90286 44.16528,38.69093 14.98256,55.46359 -16.80569,9.65902 -37.04928,13.24171 -74.37379,13.16262 -27.18979,-0.0576 -34.52326,-1.10432 -48.76679,-6.96046 z"
       id="path1458"
       inkscape:connector-curvature="0"
       transform="scale(0.26458333)" />
    <path
       style="opacity:1;fill:none;fill-opacity:1;stroke:#000000;stroke-width:15.71428585;stroke-linecap:round;stroke-linejoin:round;stroke-miterlimit:4;stroke-dasharray:none;stroke-opacity:0"
       d="m 491.23544,281.77713 c -16.64785,-6.84466 -28.51036,-15.67716 -33.51093,-24.95131 -6.14493,-11.39649 9.84512,-27.14485 38.84692,-38.25973 22.22702,-8.51847 79.51739,-7.65746 102.82203,1.54529 37.73933,14.90286 44.16528,38.69093 14.98256,55.46359 -16.80569,9.65902 -37.04928,13.24171 -74.37379,13.16262 -27.18979,-0.0576 -34.52326,-1.10432 -48.76679,-6.96046 z"
       id="path1460"
       inkscape:connector-curvature="0"
       transform="scale(0.26458333)" />
    <path
       style="opacity:1;fill:none;fill-opacity:1;stroke:#000000;stroke-width:15.71428585;stroke-linecap:round;stroke-linejoin:round;stroke-miterlimit:4;stroke-dasharray:none;stroke-opacity:0"
       d="m 491.23544,281.77713 c -16.64785,-6.84466 -28.51036,-15.67716 -33.51093,-24.95131 -6.14493,-11.39649 9.84512,-27.14485 38.84692,-38.25973 22.22702,-8.51847 79.51739,-7.65746 102.82203,1.54529 37.73933,14.90286 44.16528,38.69093 14.98256,55.46359 -16.80569,9.65902 -37.04928,13.24171 -74.37379,13.16262 -27.18979,-0.0576 -34.52326,-1.10432 -48.76679,-6.96046 z"
       id="path1462"
       inkscape:connector-curvature="0"
       transform="scale(0.26458333)" />
    <path
       style="opacity:1;fill:none;fill-opacity:1;stroke:#000000;stroke-width:15.71428585;stroke-linecap:round;stroke-linejoin:round;stroke-miterlimit:4;stroke-dasharray:none;stroke-opacity:0"
       d="m 426.57143,261.22685 c 0,-20.5818 -0.77025,-41.76074 -1.71167,-47.06431 -1.50796,-8.49521 0.0214,-7.09254 12.8499,11.78572 8.00886,11.78571 14.56483,23.20063 14.56881,25.36649 0.004,2.16586 -4.0688,11.16586 -9.05062,20 -17.41551,30.88245 -16.65642,31.34219 -16.65642,-10.0879 z"
       id="path1464"
       inkscape:connector-curvature="0"
       transform="scale(0.26458333)" />
    <path
       style="opacity:1;fill:none;fill-opacity:1;stroke:#000000;stroke-width:15.71428585;stroke-linecap:round;stroke-linejoin:round;stroke-miterlimit:4;stroke-dasharray:none;stroke-opacity:0"
       d="m 426.57143,261.22685 c 0,-20.5818 -0.77025,-41.76074 -1.71167,-47.06431 -1.50796,-8.49521 0.0214,-7.09254 12.8499,11.78572 8.00886,11.78571 14.56483,23.20063 14.56881,25.36649 0.004,2.16586 -4.0688,11.16586 -9.05062,20 -17.41551,30.88245 -16.65642,31.34219 -16.65642,-10.0879 z"
       id="path1466"
       inkscape:connector-curvature="0"
       transform="scale(0.26458333)" />
    <path
       style="opacity:1;fill:none;fill-opacity:1;stroke:#000000;stroke-width:15.71428585;stroke-linecap:round;stroke-linejoin:round;stroke-miterlimit:4;stroke-dasharray:none;stroke-opacity:0"
       d="m 426.57143,261.22685 c 0,-20.5818 -0.77025,-41.76074 -1.71167,-47.06431 -1.50796,-8.49521 0.0214,-7.09254 12.8499,11.78572 8.00886,11.78571 14.56483,23.20063 14.56881,25.36649 0.004,2.16586 -4.0688,11.16586 -9.05062,20 -17.41551,30.88245 -16.65642,31.34219 -16.65642,-10.0879 z"
       id="path1468"
       inkscape:connector-curvature="0"
       transform="scale(0.26458333)" />
    <path
       style="opacity:1;fill:none;fill-opacity:1;stroke:#000000;stroke-width:15.71428585;stroke-linecap:round;stroke-linejoin:round;stroke-miterlimit:4;stroke-dasharray:none;stroke-opacity:0"
       d="M 0.85714286,244.65896 V 3.3696636 L 397.28571,2.516103 C 615.32143,2.0466445 793.9228,1.6625422 794.17766,1.6625422 c 0.25485,0 1.40657,108.1083778 2.55931,240.2408378 l 2.09594,240.24085 -203.98788,1.8998 c -112.19334,1.04491 -291.73789,1.90083 -398.98789,1.90203 l -194.99999714,0.002 z M 441.202,282.49274 c 12.23977,-21.23688 13.55883,-22.59691 16.53069,-17.04396 13.97117,26.10539 98.499,38.05265 144.55302,20.43131 35.59155,-13.61816 45.01046,-34.16508 24.8866,-54.28893 -32.08068,-32.08069 -129.80171,-32.42579 -163.04182,-0.57577 l -11.11186,10.64715 -14.8518,-22.41942 c -8.16849,-12.33069 -15.49663,-21.7746 -16.28474,-20.98647 -0.78812,0.78812 -0.51006,26.01006 0.61791,56.04875 1.12797,30.03869 2.80463,53.86206 3.72589,52.9408 0.92125,-0.92126 7.66051,-12.06031 14.97611,-24.75346 z"
       id="path1470"
       inkscape:connector-curvature="0"
       transform="scale(0.26458333)" />
    <path
       style="opacity:1;fill:none;fill-opacity:1;stroke:#000000;stroke-width:15.71428585;stroke-linecap:round;stroke-linejoin:round;stroke-miterlimit:4;stroke-dasharray:none;stroke-opacity:0"
       d="m 491.23544,281.77713 c -16.64785,-6.84466 -28.51036,-15.67716 -33.51093,-24.95131 -6.14493,-11.39649 9.84512,-27.14485 38.84692,-38.25973 22.22702,-8.51847 79.51739,-7.65746 102.82203,1.54529 37.73933,14.90286 44.16528,38.69093 14.98256,55.46359 -16.80569,9.65902 -37.04928,13.24171 -74.37379,13.16262 -27.18979,-0.0576 -34.52326,-1.10432 -48.76679,-6.96046 z"
       id="path1472"
       inkscape:connector-curvature="0"
       transform="scale(0.26458333)" />
    <path
       style="opacity:1;fill:#000000;fill-opacity:0;stroke:#000000;stroke-width:15.71428585;stroke-linecap:round;stroke-linejoin:round;stroke-miterlimit:4;stroke-dasharray:none;stroke-opacity:0"
       d="m 491.23544,281.77713 c -16.64785,-6.84466 -28.51036,-15.67716 -33.51093,-24.95131 -6.14493,-11.39649 9.84512,-27.14485 38.84692,-38.25973 22.22702,-8.51847 79.51739,-7.65746 102.82203,1.54529 37.73933,14.90286 44.16528,38.69093 14.98256,55.46359 -16.80569,9.65902 -37.04928,13.24171 -74.37379,13.16262 -27.18979,-0.0576 -34.52326,-1.10432 -48.76679,-6.96046 z"
       id="path1474"
       inkscape:connector-curvature="0"
       transform="scale(0.26458333)" />
    <path
       style="opacity:1;fill:#000000;fill-opacity:0;stroke:#000000;stroke-width:15.71428585;stroke-linecap:round;stroke-linejoin:round;stroke-miterlimit:4;stroke-dasharray:none;stroke-opacity:0"
       d="m 491.23544,281.77713 c -16.64785,-6.84466 -28.51036,-15.67716 -33.51093,-24.95131 -6.14493,-11.39649 9.84512,-27.14485 38.84692,-38.25973 22.22702,-8.51847 79.51739,-7.65746 102.82203,1.54529 37.73933,14.90286 44.16528,38.69093 14.98256,55.46359 -16.80569,9.65902 -37.04928,13.24171 -74.37379,13.16262 -27.18979,-0.0576 -34.52326,-1.10432 -48.76679,-6.96046 z"
       id="path1476"
       inkscape:connector-curvature="0"
       transform="scale(0.26458333)" />
    <path
       style="opacity:1;fill:#000000;fill-opacity:0;stroke:#000000;stroke-width:15.71428585;stroke-linecap:round;stroke-linejoin:round;stroke-miterlimit:4;stroke-dasharray:none;stroke-opacity:0"
       d="m 491.23544,281.77713 c -16.64785,-6.84466 -28.51036,-15.67716 -33.51093,-24.95131 -6.14493,-11.39649 9.84512,-27.14485 38.84692,-38.25973 22.22702,-8.51847 79.51739,-7.65746 102.82203,1.54529 37.73933,14.90286 44.16528,38.69093 14.98256,55.46359 -16.80569,9.65902 -37.04928,13.24171 -74.37379,13.16262 -27.18979,-0.0576 -34.52326,-1.10432 -48.76679,-6.96046 z"
       id="path1478"
       inkscape:connector-curvature="0"
       transform="scale(0.26458333)" />
    <path
       style="opacity:1;fill:#000000;fill-opacity:0;stroke:#000000;stroke-width:15.71428585;stroke-linecap:round;stroke-linejoin:round;stroke-miterlimit:4;stroke-dasharray:none;stroke-opacity:0"
       d="m 491.23544,281.77713 c -16.64785,-6.84466 -28.51036,-15.67716 -33.51093,-24.95131 -6.14493,-11.39649 9.84512,-27.14485 38.84692,-38.25973 22.22702,-8.51847 79.51739,-7.65746 102.82203,1.54529 37.73933,14.90286 44.16528,38.69093 14.98256,55.46359 -16.80569,9.65902 -37.04928,13.24171 -74.37379,13.16262 -27.18979,-0.0576 -34.52326,-1.10432 -48.76679,-6.96046 z"
       id="path1480"
       inkscape:connector-curvature="0"
       transform="scale(0.26458333)" />
    <path
       style="opacity:1;fill:#000000;fill-opacity:0.00392157;stroke:#000000;stroke-width:15.71428585;stroke-linecap:round;stroke-linejoin:round;stroke-miterlimit:4;stroke-dasharray:none;stroke-opacity:0"
       d=""
       id="path1492"
       inkscape:connector-curvature="0"
       transform="scale(0.26458333)" />
    <path
       style="opacity:1;fill:#000000;fill-opacity:0.00392157;stroke:#000000;stroke-width:15.71428585;stroke-linecap:round;stroke-linejoin:round;stroke-miterlimit:4;stroke-dasharray:none;stroke-opacity:0"
       d=""
       id="path1494"
       inkscape:connector-curvature="0"
       transform="scale(0.26458333)" />
    <path
       style="opacity:1;fill:#000000;fill-opacity:0.00392157;stroke:#000000;stroke-width:15.71428585;stroke-linecap:round;stroke-linejoin:round;stroke-miterlimit:4;stroke-dasharray:none;stroke-opacity:0"
       d=""
       id="path1496"
       inkscape:connector-curvature="0"
       transform="scale(0.26458333)" />
    <path
       style="opacity:1;fill:#000000;fill-opacity:0.00392157;stroke:#000000;stroke-width:15.71428585;stroke-linecap:round;stroke-linejoin:round;stroke-miterlimit:4;stroke-dasharray:none;stroke-opacity:0"
       d=""
       id="path1498"
       inkscape:connector-curvature="0"
       transform="scale(0.26458333)" />
    <path
       style="opacity:1;fill:#000000;fill-opacity:0.00392157;stroke:#000000;stroke-width:15.71428585;stroke-linecap:round;stroke-linejoin:round;stroke-miterlimit:4;stroke-dasharray:none;stroke-opacity:0"
       d=""
       id="path1500"
       inkscape:connector-curvature="0"
       transform="scale(0.26458333)" />
    <path
       style="opacity:1;fill:#000000;fill-opacity:0.00392157;stroke:#000000;stroke-width:15.71428585;stroke-linecap:round;stroke-linejoin:round;stroke-miterlimit:4;stroke-dasharray:none;stroke-opacity:0"
       d=""
       id="path1522"
       inkscape:connector-curvature="0"
       transform="scale(0.26458333)" />
    <path
       style="opacity:1;fill:#000001;fill-opacity:0.00392157;stroke:#000000;stroke-width:15.71428585;stroke-linecap:round;stroke-linejoin:round;stroke-miterlimit:4;stroke-dasharray:none;stroke-opacity:0"
       d=""
       id="path1524"
       inkscape:connector-curvature="0"
       transform="scale(0.26458333)" />
    <path
       style="opacity:1;fill:#000000;fill-opacity:0;stroke:#000000;stroke-width:15.71428585;stroke-linecap:round;stroke-linejoin:round;stroke-miterlimit:4;stroke-dasharray:none;stroke-opacity:0"
       d="m 491.23544,281.77713 c -37.24213,-15.31188 -44.25958,-34.01871 -19.25251,-51.32262 16.30417,-11.28185 33.9885,-16.39599 62.37506,-18.03827 64.06544,-3.70647 110.80747,21.27022 95.01803,50.77306 -4.23681,7.91655 -24.79737,18.85889 -42.23094,22.47532 -8.32735,1.72743 -29.54163,3.11026 -47.14285,3.07297 -27.18979,-0.0576 -34.52326,-1.10432 -48.76679,-6.96046 z"
       id="path1526"
       inkscape:connector-curvature="0"
       transform="scale(0.26458333)" />
    <path
       style="opacity:1;fill:#000000;fill-opacity:0;stroke:#000000;stroke-width:15.71428585;stroke-linecap:round;stroke-linejoin:round;stroke-miterlimit:4;stroke-dasharray:none;stroke-opacity:0"
       d="m 491.23544,281.77713 c -37.24213,-15.31188 -44.25958,-34.01871 -19.25251,-51.32262 16.30417,-11.28185 33.9885,-16.39599 62.37506,-18.03827 64.06544,-3.70647 110.80747,21.27022 95.01803,50.77306 -4.23681,7.91655 -24.79737,18.85889 -42.23094,22.47532 -8.32735,1.72743 -29.54163,3.11026 -47.14285,3.07297 -27.18979,-0.0576 -34.52326,-1.10432 -48.76679,-6.96046 z"
       id="path1528"
       inkscape:connector-curvature="0"
       transform="scale(0.26458333)" />
    <path
       style="opacity:1;fill:#000000;fill-opacity:0;stroke:#000000;stroke-width:15.71428585;stroke-linecap:round;stroke-linejoin:round;stroke-miterlimit:4;stroke-dasharray:none;stroke-opacity:0"
       d="m 491.23544,281.77713 c -37.24213,-15.31188 -44.25958,-34.01871 -19.25251,-51.32262 16.30417,-11.28185 33.9885,-16.39599 62.37506,-18.03827 64.06544,-3.70647 110.80747,21.27022 95.01803,50.77306 -4.23681,7.91655 -24.79737,18.85889 -42.23094,22.47532 -8.32735,1.72743 -29.54163,3.11026 -47.14285,3.07297 -27.18979,-0.0576 -34.52326,-1.10432 -48.76679,-6.96046 z"
       id="path1530"
       inkscape:connector-curvature="0"
       transform="scale(0.26458333)" />
    <path
       style="opacity:1;fill:#000000;fill-opacity:0;stroke:#000000;stroke-width:15.71428585;stroke-linecap:round;stroke-linejoin:round;stroke-miterlimit:4;stroke-dasharray:none;stroke-opacity:0"
       d="m 491.23544,281.77713 c -37.24213,-15.31188 -44.25958,-34.01871 -19.25251,-51.32262 16.30417,-11.28185 33.9885,-16.39599 62.37506,-18.03827 64.06544,-3.70647 110.80747,21.27022 95.01803,50.77306 -4.23681,7.91655 -24.79737,18.85889 -42.23094,22.47532 -8.32735,1.72743 -29.54163,3.11026 -47.14285,3.07297 -27.18979,-0.0576 -34.52326,-1.10432 -48.76679,-6.96046 z"
       id="path1532"
       inkscape:connector-curvature="0"
       transform="scale(0.26458333)" />
    <path
       style="opacity:1;fill:#000000;fill-opacity:0;stroke:#000000;stroke-width:15.71428585;stroke-linecap:round;stroke-linejoin:round;stroke-miterlimit:4;stroke-dasharray:none;stroke-opacity:0"
       d="m 491.23544,281.77713 c -37.24213,-15.31188 -44.25958,-34.01871 -19.25251,-51.32262 16.30417,-11.28185 33.9885,-16.39599 62.37506,-18.03827 64.06544,-3.70647 110.80747,21.27022 95.01803,50.77306 -4.23681,7.91655 -24.79737,18.85889 -42.23094,22.47532 -8.32735,1.72743 -29.54163,3.11026 -47.14285,3.07297 -27.18979,-0.0576 -34.52326,-1.10432 -48.76679,-6.96046 z"
       id="path1534"
       inkscape:connector-curvature="0"
       transform="scale(0.26458333)" />
    <path
       style="opacity:1;fill:#000000;fill-opacity:0;stroke:#000000;stroke-width:15.71428585;stroke-linecap:round;stroke-linejoin:round;stroke-miterlimit:4;stroke-dasharray:none;stroke-opacity:0"
       d=""
       id="path1536"
       inkscape:connector-curvature="0"
       transform="scale(0.26458333)" />
    <path
       style="opacity:1;fill:#000000;fill-opacity:0;stroke:#000000;stroke-width:15.71428585;stroke-linecap:round;stroke-linejoin:round;stroke-miterlimit:4;stroke-dasharray:none;stroke-opacity:0"
       d="m 491.23544,281.77713 c -37.24213,-15.31188 -44.25958,-34.01871 -19.25251,-51.32262 16.30417,-11.28185 33.9885,-16.39599 62.37506,-18.03827 64.06544,-3.70647 110.80747,21.27022 95.01803,50.77306 -4.23681,7.91655 -24.79737,18.85889 -42.23094,22.47532 -8.32735,1.72743 -29.54163,3.11026 -47.14285,3.07297 -27.18979,-0.0576 -34.52326,-1.10432 -48.76679,-6.96046 z"
       id="path1540"
       inkscape:connector-curvature="0"
       transform="scale(0.26458333)" />
    <path
       style="opacity:1;fill:#000000;fill-opacity:0;stroke:#000000;stroke-width:15.71428585;stroke-linecap:round;stroke-linejoin:round;stroke-miterlimit:4;stroke-dasharray:none;stroke-opacity:0"
       d="m 426.57143,261.22685 c 0,-20.5818 -0.77025,-41.76074 -1.71167,-47.06431 -1.50796,-8.49521 0.0214,-7.09254 12.8499,11.78572 8.00886,11.78571 14.56483,23.20063 14.56881,25.36649 0.004,2.16586 -4.0688,11.16586 -9.05062,20 -17.41551,30.88245 -16.65642,31.34219 -16.65642,-10.0879 z"
       id="path1542"
       inkscape:connector-curvature="0"
       transform="scale(0.26458333)" />
    <path
       style="opacity:1;fill:#000000;fill-opacity:0;stroke:#000000;stroke-width:15.71428585;stroke-linecap:round;stroke-linejoin:round;stroke-miterlimit:4;stroke-dasharray:none;stroke-opacity:0"
       d="m 491.23545,281.77712 c -37.24214,-15.31187 -44.25958,-34.0187 -19.25252,-51.32261 16.30418,-11.28185 33.98851,-16.39599 62.37506,-18.03828 64.06544,-3.70647 110.80748,21.27023 95.01804,50.77307 -4.23681,7.91655 -24.79737,18.85888 -42.23094,22.47531 -8.32735,1.72743 -29.54164,3.11027 -47.14286,3.07297 -27.18979,-0.0576 -34.52325,-1.10432 -48.76678,-6.96046 z"
       id="path894"
       inkscape:connector-curvature="0"
       transform="scale(0.26458333)" />
    <path
       style="opacity:1;fill:#000000;fill-opacity:0;stroke:#000000;stroke-width:15.71428585;stroke-linecap:round;stroke-linejoin:round;stroke-miterlimit:4;stroke-dasharray:none;stroke-opacity:0"
       d="m 426.57143,261.22684 c 0,-20.58179 -0.77025,-41.76073 -1.71167,-47.0643 -1.50796,-8.49522 0.0214,-7.09255 12.8499,11.78571 8.00886,11.78572 14.56483,23.20064 14.56881,25.3665 0.004,2.16586 -4.06879,11.16586 -9.05062,20 -17.41551,30.88245 -16.65642,31.34219 -16.65642,-10.08791 z"
       id="path896"
       inkscape:connector-curvature="0"
       transform="scale(0.26458333)" />
    <path
       style="opacity:1;fill:#800000;fill-opacity:0;stroke:#000000;stroke-width:15.71428585;stroke-linecap:round;stroke-linejoin:round;stroke-miterlimit:4;stroke-dasharray:none;stroke-opacity:0"
       d="m 491.23545,281.77712 c -37.24214,-15.31187 -44.25958,-34.0187 -19.25252,-51.32261 16.30418,-11.28185 33.98851,-16.39599 62.37506,-18.03828 64.06544,-3.70647 110.80748,21.27023 95.01804,50.77307 -4.23681,7.91655 -24.79737,18.85888 -42.23094,22.47531 -8.32735,1.72743 -29.54164,3.11027 -47.14286,3.07297 -27.18979,-0.0576 -34.52325,-1.10432 -48.76678,-6.96046 z"
       id="path898"
       inkscape:connector-curvature="0"
       transform="scale(0.26458333)" />
    <path
       style="opacity:1;fill:#000000;fill-opacity:0;stroke:#000000;stroke-width:15.71428585;stroke-linecap:round;stroke-linejoin:round;stroke-miterlimit:4;stroke-dasharray:none;stroke-opacity:0"
       d="m 491.23545,281.77712 c -37.24214,-15.31187 -44.25958,-34.0187 -19.25252,-51.32261 16.30418,-11.28185 33.98851,-16.39599 62.37506,-18.03828 64.06544,-3.70647 110.80748,21.27023 95.01804,50.77307 -4.23681,7.91655 -24.79737,18.85888 -42.23094,22.47531 -8.32735,1.72743 -29.54164,3.11027 -47.14286,3.07297 -27.18979,-0.0576 -34.52325,-1.10432 -48.76678,-6.96046 z"
       id="path900"
       inkscape:connector-curvature="0"
       transform="scale(0.26458333)" />
    <path
       style="opacity:1;fill:#000000;fill-opacity:0;stroke:#000000;stroke-width:15.71428585;stroke-linecap:round;stroke-linejoin:round;stroke-miterlimit:4;stroke-dasharray:none;stroke-opacity:0"
       d="m 426.57143,261.22684 c 0,-20.58179 -0.77025,-41.76073 -1.71167,-47.0643 -1.50796,-8.49522 0.0214,-7.09255 12.8499,11.78571 8.00886,11.78572 14.56483,23.20064 14.56881,25.3665 0.004,2.16586 -4.06879,11.16586 -9.05062,20 -17.41551,30.88245 -16.65642,31.34219 -16.65642,-10.08791 z"
       id="path902"
       inkscape:connector-curvature="0"
       transform="scale(0.26458333)" />
    <path
       style="opacity:1;fill:#000000;fill-opacity:0;stroke:#000000;stroke-width:15.71428585;stroke-linecap:round;stroke-linejoin:round;stroke-miterlimit:4;stroke-dasharray:none;stroke-opacity:0"
       d="m 426.57143,261.22684 c 0,-20.58179 -0.77025,-41.76073 -1.71167,-47.0643 -1.50796,-8.49522 0.0214,-7.09255 12.8499,11.78571 8.00886,11.78572 14.56483,23.20064 14.56881,25.3665 0.004,2.16586 -4.06879,11.16586 -9.05062,20 -17.41551,30.88245 -16.65642,31.34219 -16.65642,-10.08791 z"
       id="path904"
       inkscape:connector-curvature="0"
       transform="scale(0.26458333)" />
    <path
       style="opacity:1;fill:#000000;fill-opacity:0;stroke:#000000;stroke-width:15.71428585;stroke-linecap:round;stroke-linejoin:round;stroke-miterlimit:4;stroke-dasharray:none;stroke-opacity:0"
       d="m 426.57143,261.22684 c 0,-20.58179 -0.77025,-41.76073 -1.71167,-47.0643 -1.50796,-8.49522 0.0214,-7.09255 12.8499,11.78571 8.00886,11.78572 14.56483,23.20064 14.56881,25.3665 0.004,2.16586 -4.06879,11.16586 -9.05062,20 -17.41551,30.88245 -16.65642,31.34219 -16.65642,-10.08791 z"
       id="path906"
       inkscape:connector-curvature="0"
       transform="scale(0.26458333)" />
    <path
       style="opacity:1;fill:#000000;fill-opacity:0;stroke:#000000;stroke-width:15.71428585;stroke-linecap:round;stroke-linejoin:round;stroke-miterlimit:4;stroke-dasharray:none;stroke-opacity:0"
       d="m 426.57143,261.22684 c 0,-20.58179 -0.77025,-41.76073 -1.71167,-47.0643 -1.50796,-8.49522 0.0214,-7.09255 12.8499,11.78571 8.00886,11.78572 14.56483,23.20064 14.56881,25.3665 0.004,2.16586 -4.06879,11.16586 -9.05062,20 -17.41551,30.88245 -16.65642,31.34219 -16.65642,-10.08791 z"
       id="path908"
       inkscape:connector-curvature="0"
       transform="scale(0.26458333)" />
    <path
       style="opacity:1;fill:#000000;fill-opacity:0;stroke:#000000;stroke-width:15.71428585;stroke-linecap:round;stroke-linejoin:round;stroke-miterlimit:4;stroke-dasharray:none;stroke-opacity:0"
       d="m 426.57143,261.22684 c 0,-20.58179 -0.77025,-41.76073 -1.71167,-47.0643 -1.50796,-8.49522 0.0214,-7.09255 12.8499,11.78571 8.00886,11.78572 14.56483,23.20064 14.56881,25.3665 0.004,2.16586 -4.06879,11.16586 -9.05062,20 -17.41551,30.88245 -16.65642,31.34219 -16.65642,-10.08791 z"
       id="path910"
       inkscape:connector-curvature="0"
       transform="scale(0.26458333)" />
    <path
       style="opacity:1;fill:#000000;fill-opacity:0;stroke:#000000;stroke-width:15.71428585;stroke-linecap:round;stroke-linejoin:round;stroke-miterlimit:4;stroke-dasharray:none;stroke-opacity:0"
       d="m 426.57143,261.22684 c 0,-20.58179 -0.77025,-41.76073 -1.71167,-47.0643 -1.50796,-8.49522 0.0214,-7.09255 12.8499,11.78571 8.00886,11.78572 14.56483,23.20064 14.56881,25.3665 0.004,2.16586 -4.06879,11.16586 -9.05062,20 -17.41551,30.88245 -16.65642,31.34219 -16.65642,-10.08791 z"
       id="path912"
       inkscape:connector-curvature="0"
       transform="scale(0.26458333)" />
    <path
       style="opacity:1;fill:#000000;fill-opacity:0;stroke:#000000;stroke-width:15.71428585;stroke-linecap:round;stroke-linejoin:round;stroke-miterlimit:4;stroke-dasharray:none;stroke-opacity:0"
       d="m 426.57143,261.22684 c 0,-20.58179 -0.77025,-41.76073 -1.71167,-47.0643 -1.50796,-8.49522 0.0214,-7.09255 12.8499,11.78571 8.00886,11.78572 14.56483,23.20064 14.56881,25.3665 0.004,2.16586 -4.06879,11.16586 -9.05062,20 -17.41551,30.88245 -16.65642,31.34219 -16.65642,-10.08791 z"
       id="path914"
       inkscape:connector-curvature="0"
       transform="scale(0.26458333)" />
    <path
       style="opacity:1;fill:#000000;fill-opacity:0;stroke:#000000;stroke-width:15.71428585;stroke-linecap:round;stroke-linejoin:round;stroke-miterlimit:4;stroke-dasharray:none;stroke-opacity:0"
       d="m 426.57143,261.22684 c 0,-20.58179 -0.77025,-41.76073 -1.71167,-47.0643 -1.50796,-8.49522 0.0214,-7.09255 12.8499,11.78571 8.00886,11.78572 14.56483,23.20064 14.56881,25.3665 0.004,2.16586 -4.06879,11.16586 -9.05062,20 -17.41551,30.88245 -16.65642,31.34219 -16.65642,-10.08791 z"
       id="path916"
       inkscape:connector-curvature="0"
       transform="scale(0.26458333)" />
    <path
       style="opacity:1;fill:#000000;fill-opacity:0;stroke:#000000;stroke-width:15.71428585;stroke-linecap:round;stroke-linejoin:round;stroke-miterlimit:4;stroke-dasharray:none;stroke-opacity:0"
       d="m 491.23545,281.77712 c -37.24214,-15.31187 -44.25958,-34.0187 -19.25252,-51.32261 16.30418,-11.28185 33.98851,-16.39599 62.37506,-18.03828 64.06544,-3.70647 110.80748,21.27023 95.01804,50.77307 -4.23681,7.91655 -24.79737,18.85888 -42.23094,22.47531 -8.32735,1.72743 -29.54164,3.11027 -47.14286,3.07297 -27.18979,-0.0576 -34.52325,-1.10432 -48.76678,-6.96046 z"
       id="path918"
       inkscape:connector-curvature="0"
       transform="scale(0.26458333)" />
    <path
       style="opacity:1;fill:#000000;fill-opacity:0;stroke:#000000;stroke-width:15.71428585;stroke-linecap:round;stroke-linejoin:round;stroke-miterlimit:4;stroke-dasharray:none;stroke-opacity:0"
       d="m 426.57143,261.22684 c 0,-20.58179 -0.77025,-41.76073 -1.71167,-47.0643 -1.50796,-8.49522 0.0214,-7.09255 12.8499,11.78571 8.00886,11.78572 14.56483,23.20064 14.56881,25.3665 0.004,2.16586 -4.06879,11.16586 -9.05062,20 -17.41551,30.88245 -16.65642,31.34219 -16.65642,-10.08791 z"
       id="path920"
       inkscape:connector-curvature="0"
       transform="scale(0.26458333)" />
    <path
       style="opacity:1;fill:#000000;fill-opacity:0;stroke:#000000;stroke-width:15.71428585;stroke-linecap:round;stroke-linejoin:round;stroke-miterlimit:4;stroke-dasharray:none;stroke-opacity:0"
       d="m 426.57143,261.22684 c 0,-20.58179 -0.77025,-41.76073 -1.71167,-47.0643 -1.50796,-8.49522 0.0214,-7.09255 12.8499,11.78571 8.00886,11.78572 14.56483,23.20064 14.56881,25.3665 0.004,2.16586 -4.06879,11.16586 -9.05062,20 -17.41551,30.88245 -16.65642,31.34219 -16.65642,-10.08791 z"
       id="path922"
       inkscape:connector-curvature="0"
       transform="scale(0.26458333)" />
    <path
       style="opacity:1;fill:#000000;fill-opacity:0;stroke:#000000;stroke-width:15.71428585;stroke-linecap:round;stroke-linejoin:round;stroke-miterlimit:4;stroke-dasharray:none;stroke-opacity:0"
       d="M 0.85714571,244.65896 V 3.3696593 L 397.28572,2.5160988 C 615.32143,2.0466402 793.93055,1.664521 794.19489,1.6669445 c 0.26428,0.00242 1.42068,108.1107555 2.56968,240.2407455 l 2.08909,240.23633 -203.99826,1.89992 c -112.19903,1.04494 -291.74825,1.90091 -398.99825,1.90211 l -195.00000429,0.002 z M 441.202,282.49274 c 12.23977,-21.23688 13.55883,-22.59692 16.53069,-17.04396 13.97117,26.10539 98.499,38.05264 144.55303,20.4313 35.59154,-13.61815 45.01045,-34.16508 24.8866,-54.28892 -32.08069,-32.08069 -129.80172,-32.42579 -163.04183,-0.57578 l -11.11186,10.64716 -14.8518,-22.41943 c -8.16848,-12.33068 -15.49663,-21.77459 -16.28474,-20.98647 -0.78812,0.78812 -0.51006,26.01006 0.61791,56.04876 1.12797,30.03868 2.80463,53.86205 3.72589,52.9408 0.92126,-0.92126 7.66051,-12.06032 14.97611,-24.75346 z"
       id="path924"
       inkscape:connector-curvature="0"
       transform="scale(0.26458333)" />
    <path
       style="opacity:1;fill:#000000;fill-opacity:0;stroke:#000000;stroke-width:15.71428585;stroke-linecap:round;stroke-linejoin:round;stroke-miterlimit:4;stroke-dasharray:none;stroke-opacity:0"
       d="M 0.85714571,244.65896 V 3.3696593 L 397.28572,2.5160988 C 615.32143,2.0466402 793.93055,1.664521 794.19489,1.6669445 c 0.26428,0.00242 1.42068,108.1107555 2.56968,240.2407455 l 2.08909,240.23633 -203.99826,1.89992 c -112.19903,1.04494 -291.74825,1.90091 -398.99825,1.90211 l -195.00000429,0.002 z M 441.202,282.49274 c 12.23977,-21.23688 13.55883,-22.59692 16.53069,-17.04396 13.97117,26.10539 98.499,38.05264 144.55303,20.4313 35.59154,-13.61815 45.01045,-34.16508 24.8866,-54.28892 -32.08069,-32.08069 -129.80172,-32.42579 -163.04183,-0.57578 l -11.11186,10.64716 -14.8518,-22.41943 c -8.16848,-12.33068 -15.49663,-21.77459 -16.28474,-20.98647 -0.78812,0.78812 -0.51006,26.01006 0.61791,56.04876 1.12797,30.03868 2.80463,53.86205 3.72589,52.9408 0.92126,-0.92126 7.66051,-12.06032 14.97611,-24.75346 z"
       id="path926"
       inkscape:connector-curvature="0"
       transform="scale(0.26458333)" />
    <path
       style="opacity:1;fill:#000000;fill-opacity:0;stroke:#000000;stroke-width:15.71428585;stroke-linecap:round;stroke-linejoin:round;stroke-miterlimit:4;stroke-dasharray:none;stroke-opacity:0"
       d="M 0.85714571,244.65896 V 3.3696593 L 397.28572,2.5160988 C 615.32143,2.0466402 793.93055,1.664521 794.19489,1.6669445 c 0.26428,0.00242 1.42068,108.1107555 2.56968,240.2407455 l 2.08909,240.23633 -203.99826,1.89992 c -112.19903,1.04494 -291.74825,1.90091 -398.99825,1.90211 l -195.00000429,0.002 z M 441.202,282.49274 c 12.23977,-21.23688 13.55883,-22.59692 16.53069,-17.04396 13.97117,26.10539 98.499,38.05264 144.55303,20.4313 35.59154,-13.61815 45.01045,-34.16508 24.8866,-54.28892 -32.08069,-32.08069 -129.80172,-32.42579 -163.04183,-0.57578 l -11.11186,10.64716 -14.8518,-22.41943 c -8.16848,-12.33068 -15.49663,-21.77459 -16.28474,-20.98647 -0.78812,0.78812 -0.51006,26.01006 0.61791,56.04876 1.12797,30.03868 2.80463,53.86205 3.72589,52.9408 0.92126,-0.92126 7.66051,-12.06032 14.97611,-24.75346 z"
       id="path928"
       inkscape:connector-curvature="0"
       transform="scale(0.26458333)" />
    <path
       style="opacity:1;fill:#000000;fill-opacity:0;stroke:#000000;stroke-width:15.71428585;stroke-linecap:round;stroke-linejoin:round;stroke-miterlimit:4;stroke-dasharray:none;stroke-opacity:0"
       d="M 0.85714571,244.65896 V 3.3696593 L 397.28572,2.5160988 C 615.32143,2.0466402 793.93055,1.664521 794.19489,1.6669445 c 0.26428,0.00242 1.42068,108.1107555 2.56968,240.2407455 l 2.08909,240.23633 -203.99826,1.89992 c -112.19903,1.04494 -291.74825,1.90091 -398.99825,1.90211 l -195.00000429,0.002 z M 441.202,282.49274 c 12.23977,-21.23688 13.55883,-22.59692 16.53069,-17.04396 13.97117,26.10539 98.499,38.05264 144.55303,20.4313 35.59154,-13.61815 45.01045,-34.16508 24.8866,-54.28892 -32.08069,-32.08069 -129.80172,-32.42579 -163.04183,-0.57578 l -11.11186,10.64716 -14.8518,-22.41943 c -8.16848,-12.33068 -15.49663,-21.77459 -16.28474,-20.98647 -0.78812,0.78812 -0.51006,26.01006 0.61791,56.04876 1.12797,30.03868 2.80463,53.86205 3.72589,52.9408 0.92126,-0.92126 7.66051,-12.06032 14.97611,-24.75346 z"
       id="path930"
       inkscape:connector-curvature="0"
       transform="scale(0.26458333)" />
    <path
       style="opacity:1;fill:#000000;fill-opacity:0;stroke:#000000;stroke-width:15.71428585;stroke-linecap:round;stroke-linejoin:round;stroke-miterlimit:4;stroke-dasharray:none;stroke-opacity:0"
       d="M 0.85714571,244.65896 V 3.3696593 L 397.28572,2.5160988 C 615.32143,2.0466402 793.93055,1.664521 794.19489,1.6669445 c 0.26428,0.00242 1.42068,108.1107555 2.56968,240.2407455 l 2.08909,240.23633 -203.99826,1.89992 c -112.19903,1.04494 -291.74825,1.90091 -398.99825,1.90211 l -195.00000429,0.002 z M 441.202,282.49274 c 12.23977,-21.23688 13.55883,-22.59692 16.53069,-17.04396 13.97117,26.10539 98.499,38.05264 144.55303,20.4313 35.59154,-13.61815 45.01045,-34.16508 24.8866,-54.28892 -32.08069,-32.08069 -129.80172,-32.42579 -163.04183,-0.57578 l -11.11186,10.64716 -14.8518,-22.41943 c -8.16848,-12.33068 -15.49663,-21.77459 -16.28474,-20.98647 -0.78812,0.78812 -0.51006,26.01006 0.61791,56.04876 1.12797,30.03868 2.80463,53.86205 3.72589,52.9408 0.92126,-0.92126 7.66051,-12.06032 14.97611,-24.75346 z"
       id="path932"
       inkscape:connector-curvature="0"
       transform="scale(0.26458333)" />
    <path
       style="opacity:1;fill:#000000;fill-opacity:0;stroke:#000000;stroke-width:15.71428585;stroke-linecap:round;stroke-linejoin:round;stroke-miterlimit:4;stroke-dasharray:none;stroke-opacity:0"
       d="M 0.85714571,244.65896 V 3.3696593 L 397.28572,2.5160988 C 615.32143,2.0466402 793.93055,1.664521 794.19489,1.6669445 c 0.26428,0.00242 1.42068,108.1107555 2.56968,240.2407455 l 2.08909,240.23633 -203.99826,1.89992 c -112.19903,1.04494 -291.74825,1.90091 -398.99825,1.90211 l -195.00000429,0.002 z M 441.202,282.49274 c 12.23977,-21.23688 13.55883,-22.59692 16.53069,-17.04396 13.97117,26.10539 98.499,38.05264 144.55303,20.4313 35.59154,-13.61815 45.01045,-34.16508 24.8866,-54.28892 -32.08069,-32.08069 -129.80172,-32.42579 -163.04183,-0.57578 l -11.11186,10.64716 -14.8518,-22.41943 c -8.16848,-12.33068 -15.49663,-21.77459 -16.28474,-20.98647 -0.78812,0.78812 -0.51006,26.01006 0.61791,56.04876 1.12797,30.03868 2.80463,53.86205 3.72589,52.9408 0.92126,-0.92126 7.66051,-12.06032 14.97611,-24.75346 z"
       id="path934"
       inkscape:connector-curvature="0"
       transform="scale(0.26458333)" />
    <path
       style="opacity:1;fill:#000000;fill-opacity:0;stroke:#000000;stroke-width:15.71428585;stroke-linecap:round;stroke-linejoin:round;stroke-miterlimit:4;stroke-dasharray:none;stroke-opacity:0"
       d="M 0.85714571,244.65896 V 3.3696593 L 397.28572,2.5160988 C 615.32143,2.0466402 793.93055,1.664521 794.19489,1.6669445 c 0.26428,0.00242 1.42068,108.1107555 2.56968,240.2407455 l 2.08909,240.23633 -203.99826,1.89992 c -112.19903,1.04494 -291.74825,1.90091 -398.99825,1.90211 l -195.00000429,0.002 z M 441.202,282.49274 c 12.23977,-21.23688 13.55883,-22.59692 16.53069,-17.04396 13.97117,26.10539 98.499,38.05264 144.55303,20.4313 35.59154,-13.61815 45.01045,-34.16508 24.8866,-54.28892 -32.08069,-32.08069 -129.80172,-32.42579 -163.04183,-0.57578 l -11.11186,10.64716 -14.8518,-22.41943 c -8.16848,-12.33068 -15.49663,-21.77459 -16.28474,-20.98647 -0.78812,0.78812 -0.51006,26.01006 0.61791,56.04876 1.12797,30.03868 2.80463,53.86205 3.72589,52.9408 0.92126,-0.92126 7.66051,-12.06032 14.97611,-24.75346 z"
       id="path936"
       inkscape:connector-curvature="0"
       transform="scale(0.26458333)" />
    <path
       style="opacity:1;fill:#000000;fill-opacity:0;stroke:#000000;stroke-width:15.71428585;stroke-linecap:round;stroke-linejoin:round;stroke-miterlimit:4;stroke-dasharray:none;stroke-opacity:0"
       d="M 0.85714571,244.65896 V 3.3696593 L 397.28572,2.5160988 C 615.32143,2.0466402 793.93055,1.664521 794.19489,1.6669445 c 0.26428,0.00242 1.42068,108.1107555 2.56968,240.2407455 l 2.08909,240.23633 -203.99826,1.89992 c -112.19903,1.04494 -291.74825,1.90091 -398.99825,1.90211 l -195.00000429,0.002 z M 441.202,282.49274 c 12.23977,-21.23688 13.55883,-22.59692 16.53069,-17.04396 13.97117,26.10539 98.499,38.05264 144.55303,20.4313 35.59154,-13.61815 45.01045,-34.16508 24.8866,-54.28892 -32.08069,-32.08069 -129.80172,-32.42579 -163.04183,-0.57578 l -11.11186,10.64716 -14.8518,-22.41943 c -8.16848,-12.33068 -15.49663,-21.77459 -16.28474,-20.98647 -0.78812,0.78812 -0.51006,26.01006 0.61791,56.04876 1.12797,30.03868 2.80463,53.86205 3.72589,52.9408 0.92126,-0.92126 7.66051,-12.06032 14.97611,-24.75346 z"
       id="path938"
       inkscape:connector-curvature="0"
       transform="scale(0.26458333)" />
    <path
       style="opacity:1;fill:#000000;fill-opacity:1;stroke:#000000;stroke-width:4.15773821;stroke-linecap:round;stroke-linejoin:round;stroke-miterlimit:4;stroke-dasharray:none;stroke-opacity:0"
       d="M 0.22678208,64.73269 V 0.89156057 L 105.11518,0.66572257 c 57.68861,-0.124211 104.94561,-0.225313 105.01555,-0.224672 0.0699,6.4e-4 0.37589,28.60429943 0.67989,63.56369943 l 0.55274,63.56253 -53.97454,0.50269 c -29.68599,0.27647 -77.191725,0.50294 -105.568287,0.50326 l -51.59375092,5.3e-4 z M 116.7347,74.74287 c 3.23844,-5.61892 3.58744,-5.97876 4.37374,-4.50954 3.69654,6.90705 26.06119,10.06809 38.24632,5.40578 9.41693,-3.60314 11.90902,-9.03951 6.58458,-14.36394 -8.48801,-8.48802 -34.34337,-8.57933 -43.13815,-0.15235 l -2.94001,2.81706 -3.92954,-5.9318 c -2.16124,-3.2625 -4.10015,-5.7612 -4.30867,-5.55267 -0.20852,0.20852 -0.13495,6.88183 0.16349,14.82956 0.29844,7.94774 0.74206,14.25101 0.98581,14.00726 0.24375,-0.24375 2.02684,-3.19096 3.96243,-6.54936 z"
       id="path940"
       inkscape:connector-curvature="0" />
    <path
       style="opacity:1;fill:#000000;fill-opacity:0;stroke:#000000;stroke-width:15.71428585;stroke-linecap:round;stroke-linejoin:round;stroke-miterlimit:4;stroke-dasharray:none;stroke-opacity:0"
       d="m 426.57143,261.22684 c 0,-20.58179 -0.77025,-41.76073 -1.71167,-47.0643 -1.50796,-8.49522 0.0214,-7.09255 12.8499,11.78571 8.00886,11.78572 14.56483,23.20064 14.56881,25.3665 0.004,2.16586 -4.06879,11.16586 -9.05062,20 -17.41551,30.88245 -16.65642,31.34219 -16.65642,-10.08791 z"
       id="path942"
       inkscape:connector-curvature="0"
       transform="scale(0.26458333)" />
    <path
       style="opacity:1;fill:#000000;fill-opacity:0;stroke:#000000;stroke-width:15.71428585;stroke-linecap:round;stroke-linejoin:round;stroke-miterlimit:4;stroke-dasharray:none;stroke-opacity:0"
       d="m 491.23545,281.77712 c -37.24214,-15.31187 -44.25958,-34.0187 -19.25252,-51.32261 16.30418,-11.28185 33.98851,-16.39599 62.37506,-18.03828 64.06544,-3.70647 110.80748,21.27023 95.01804,50.77307 -4.23681,7.91655 -24.79737,18.85888 -42.23094,22.47531 -8.32735,1.72743 -29.54164,3.11027 -47.14286,3.07297 -27.18979,-0.0576 -34.52325,-1.10432 -48.76678,-6.96046 z"
       id="path944"
       inkscape:connector-curvature="0"
       transform="scale(0.26458333)" />
  </g>
</svg>
